<?xml version="1.0" encoding="UTF-8" standalone="no"?>
<svg
   xmlns:dc="http://purl.org/dc/elements/1.1/"
   xmlns:cc="http://creativecommons.org/ns#"
   xmlns:rdf="http://www.w3.org/1999/02/22-rdf-syntax-ns#"
   xmlns:svg="http://www.w3.org/2000/svg"
   xmlns="http://www.w3.org/2000/svg"
   xmlns:sodipodi="http://sodipodi.sourceforge.net/DTD/sodipodi-0.dtd"
   xmlns:inkscape="http://www.inkscape.org/namespaces/inkscape"
   inkscape:version="1.0 (4035a4fb49, 2020-05-01)"
   sodipodi:docname="LOGO_electroLAB.svg"
   viewBox="0 0 1920 1920"
   height="1920"
   width="1920"
   xml:space="preserve"
   id="svg2"
   version="1.1"><metadata
     id="metadata8"><rdf:RDF><cc:Work
         rdf:about=""><dc:format>image/svg+xml</dc:format><dc:type
           rdf:resource="http://purl.org/dc/dcmitype/StillImage" /><dc:title></dc:title></cc:Work></rdf:RDF></metadata><defs
     id="defs6"><clipPath
       id="clipPath22"
       clipPathUnits="userSpaceOnUse"><path
         id="path20"
         d="M 0,0 H 1440 V 1440 H 0 Z" /></clipPath></defs><sodipodi:namedview
     inkscape:current-layer="g10"
     inkscape:window-maximized="1"
     inkscape:window-y="-9"
     inkscape:window-x="-9"
     inkscape:cy="830.54954"
     inkscape:cx="-204.82063"
     inkscape:zoom="0.22916667"
     showgrid="false"
     id="namedview4"
     inkscape:window-height="1051"
     inkscape:window-width="1920"
     inkscape:pageshadow="2"
     inkscape:pageopacity="0"
     guidetolerance="10"
     gridtolerance="10"
     objecttolerance="10"
     borderopacity="1"
     bordercolor="#666666"
     pagecolor="#ffffff" /><g
     transform="matrix(1.3333333,0,0,1.3333333,0,4.8e-5)"
     inkscape:label="LOGO_electroLAB"
     inkscape:groupmode="layer"
     id="g10"><rect
       y="55.636326"
       x="42.545456"
       height="1318.9091"
       width="1338.5455"
       id="rect851"
       style="fill:#ffffff;stroke-width:0.751177" /><g
       id="g12"><g
         id="g14"><g
           id="g16"><g
             clip-path="url(#clipPath22)"
             id="g18"><g
               id="g24"><path
                 id="path26"
                 style="fill:#0ca667;fill-opacity:1;fill-rule:nonzero;stroke:none"
                 d="M 0,0 V 1440 H 1440 V 0 Z m 761.754,172.129 c 17.336,0.039 34.551,9.402 42.234,29.934 C 815.07,231.68 793.25,265.5 763.059,265.5 L 659.266,363 H 269.23 L 186,446.27 v 562.46 l 80.23,80.27 h 383.45 l 198.359,112.297 4.606,-2.516 c 7.918,-4.332 29.707,-3.5 39.199,1.492 40.183,21.133 31.16,79.829 -13.543,88.09 -23.141,4.266 -38.696,-7.945 -51.168,-29.554 l -3.406,-8.383 L 636.75,1144.547 243.734,1144.5 132,1032.734 v -610.5 L 245.266,309 H 636.773 L 714,231.73 v -11.992 c 0.004,-30.203 23.992,-47.66 47.754,-47.609 z m -0.852,23 c -0.379,-0.004 -0.761,-0.004 -1.14,0.008 -13.367,0.422 -25.692,12.683 -22.617,29.07 1.195,6.371 7.386,14.008 13.531,16.684 23.687,10.316 44.445,-19.524 26.617,-38.266 -4.84,-5.086 -10.672,-7.387 -16.391,-7.496 z m -23.484,153.262 c 0.531,-0.008 1.059,-0.004 1.59,0.007 36.609,0.868 63.898,48.696 31.898,80.696 l -6.398,6.398 2.023,421.008 H 279 v 29.391 l 5.906,5.769 c 22.836,22.297 15.449,61.731 -14.101,75.258 -47.66,21.82 -90.309,-42.75 -51.024,-77.242 L 225,885.09 V 801 H 711 V 434.09 l -5.383,-5.172 c -21.265,-20.414 -17.648,-57.184 7.168,-72.848 8.278,-5.222 16.656,-7.574 24.633,-7.679 z m 1.336,23.597 c -6.594,-0.148 -13.418,2.41 -18.688,8.414 -10.828,12.336 -4.773,33.407 10.907,37.946 15.097,4.367 29.187,-5.223 30.691,-20.895 1.445,-14.996 -10.316,-25.172 -22.91,-25.465 z m -407.32,19.762 c 11.566,-0.164 23.531,4.008 33.527,13.52 l 6.027,5.73 H 669 V 756 H 231 V 572.691 l -6.668,-7.418 C 196.34,534.141 217.375,486 258.965,486 c 40.117,0 60.793,48.641 33.41,78.602 l -7.375,8.07 v 129.34 l 329.25,-0.762 v -235.5 l -242.152,-0.77 -6.426,6.422 c -30.035,30.02 -79.922,9.641 -79.922,-32.652 0,-28.129 22.004,-46.66 45.684,-47 z m 0.543,23.477 c -9.789,0.093 -19.645,5.902 -22.95,18.175 -3.347,12.434 5.223,25.727 18.387,28.516 15.004,3.18 28.066,-7.672 28.082,-23.32 0.012,-15.258 -11.707,-23.481 -23.519,-23.371 z m -74.516,93.812 c -7.863,0.16 -15.703,4.246 -20.184,12.961 -6.187,12.027 -1.14,27.152 10.793,32.344 16.664,7.254 34.981,-5.317 33.559,-23.031 -1.149,-14.352 -12.68,-22.504 -24.168,-22.274 z M 1050.59,778.234 1102.344,1046.25 1104,778.5 h 73.934 c 103.191,0 94.371,-7.199 93.742,76.5 -0.516,68.414 0.773,63.859 -22.395,79.039 l -15.078,9.879 7.274,4.496 c 18.789,11.606 23.261,15.207 27.183,21.883 l 4.09,6.953 c 0.254,43 0.512,86 0.77,129 l -3.387,5.867 c -7.254,12.578 -2.883,12.078 -109.957,12.551 l -94.574,0.418 -10.352,-65.336 -64.793,-0.809 -10.297,65.309 -164.16,0.777 V 778.5 h 52.5 v 300 l 69.059,-0.375 c 1.566,-9.98 58.109,-298.297 58.597,-298.781 z M 1155,821.941 c 0,38.239 -0.512,65.426 1,101.059 3.68,2.348 31.754,0.313 38.156,1 l 26.891,-18.633 -0.797,-82.617 c -21.75,-0.27 -43.5,-0.543 -65.25,-0.809 z M 1023.523,864 l -26.058,150 50.613,0.516 z m -772.269,36.727 c -7.551,-0.059 -15,3.781 -20.008,11.273 -7.043,10.535 -2.344,27.875 9.082,33.504 24.457,12.055 46.801,-18.246 27.61,-37.441 -4.883,-4.883 -10.813,-7.29 -16.684,-7.336 z M 1155,966 l 1.027,114.527 65.348,-0.902 -0.441,-97.875 c -7.969,-5.25 -15.938,-10.5 -23.911,-15.75 z m -485.211,8.406 c 23.809,0.094 46.508,18.774 46.426,47.094 -0.125,42.129 -47.754,62.07 -79.145,33.133 l -6.656,-6.133 H 362.109 l -5.929,6.129 c -3.262,3.371 -9.305,7.859 -13.43,9.973 -38.25,19.593 -81.016,-22.739 -62.484,-61.852 13.851,-29.23 50.375,-36.316 74.164,-14.383 l 6.656,6.133 h 269.805 l 5.742,-5.879 c 9.633,-9.867 21.527,-14.258 33.156,-14.215 z m 0.816,23.551 c -7.378,-0.156 -15.062,3.199 -20.73,11.527 -7.742,11.375 -1.777,28.985 11.625,34.332 9.754,3.887 23.195,-0.464 28.555,-9.25 11.531,-18.902 -3.215,-36.261 -19.45,-36.609 z m -347.535,1.074 c -14.187,0.157 -28.414,12.727 -23.226,30.035 2.101,7.02 9.16,14.395 15.629,16.329 19.976,5.972 37.304,-14.782 28.004,-33.547 -4.5,-9.082 -12.446,-12.903 -20.407,-12.817 z m 795.645,154.242 c 20.762,0 31.121,16.395 31.121,34.477 0,18.059 -10.379,34.473 -31.121,34.473 -20.848,0 -31.231,-16.395 -31.231,-34.473 0,-18.059 10.383,-34.477 31.231,-34.477 z m 127.582,0.024 c 13.062,0 24.547,7.051 24.461,20.566 h -6.293 c -0.371,-10.097 -8.719,-15.203 -18.082,-15.203 -8.61,0 -16.59,3.332 -16.59,13.149 0,6.207 4.629,8.804 10.016,10.101 l 16.113,3.981 c 9.363,2.507 17.148,6.574 17.148,17.41 0,4.539 -1.859,18.902 -25.304,18.902 -15.657,0 -27.141,-7.051 -26.407,-23.164 h 6.317 v 0.02 c -0.281,13.629 9.535,17.8 21.582,17.8 6.945,0 17.519,-3.804 17.519,-13.429 0,-7.504 -7.504,-10.469 -13.625,-11.961 l -14.73,-3.61 c -7.785,-1.949 -14.922,-5.648 -14.922,-15.941 0,-6.488 4.176,-18.621 22.797,-18.621 z m -299.067,1.383 h 8.782 v 42.238 c 0,11.68 6.66,18.059 18.34,18.059 11.117,0 17.234,-6.399 17.234,-18.059 v -42.238 h 8.805 v 42.238 h 0.019 c 0,16.676 -9.535,25.48 -26.039,25.48 -17.043,0 -27.141,-7.875 -27.141,-25.48 z m 66.504,0 h 9.278 l 22.883,58.008 22.796,-58.008 h 9.254 v 66.16 h -6.293 v -57.184 h -0.195 l -22.598,57.184 h -5.925 l -22.711,-57.184 h -0.172 v 57.184 h -6.317 z m 145.75,0 h 7.051 l 38.539,55.953 h 0.196 v -55.953 h 6.293 v 66.16 h -7.051 l -38.539,-55.973 h -0.196 v 55.973 h -6.293 z m -40.769,3.98 c -17.52,0 -24.938,14.641 -24.938,29.09 0.024,14.469 7.442,29.09 24.938,29.09 17.41,0 24.828,-14.645 24.828,-29.09 0,-14.449 -7.418,-29.09 -24.828,-29.09 z m -247.945,59.539 c -5.258,-0.011 -10.508,2.039 -15.196,6.156 -12.773,11.215 -10.582,31.84 4.149,39.102 25.129,12.379 47.312,-20.566 26.281,-39.031 -4.715,-4.137 -9.977,-6.215 -15.234,-6.227 z m 76.332,13.953 h 53.179 v 5.602 h -53.179 z" /></g></g></g></g></g></g></svg>
